<svg width="41" height="40" viewBox="0 0 41 40" fill="none" xmlns="http://www.w3.org/2000/svg">
<path fill-rule="evenodd" clip-rule="evenodd" d="M20.4388 0C9.13669 0 0 9.16663 0 20.507C0 29.572 5.85419 37.2453 13.9755 39.9611C14.9909 40.1653 15.3628 39.5198 15.3628 38.9769C15.3628 38.5015 15.3293 36.8719 15.3293 35.174C9.64375 36.3965 8.45977 32.7295 8.45977 32.7295C7.54606 30.3528 6.19223 29.742 6.19223 29.742C4.33134 28.4857 6.32778 28.4857 6.32778 28.4857C8.392 28.6215 9.47515 30.5907 9.47515 30.5907C11.3021 33.714 14.2462 32.8315 15.4306 32.2882C15.5996 30.964 16.1414 30.0474 16.7166 29.5382C12.182 29.0628 7.41093 27.2974 7.41093 19.4203C7.41093 17.1795 8.22256 15.3462 9.50861 13.9204C9.30571 13.4112 8.5949 11.3058 9.71194 8.48788C9.71194 8.48788 11.4377 7.94455 15.3289 10.5929C16.9949 10.144 18.713 9.91563 20.4388 9.91371C22.1646 9.91371 23.9238 10.1516 25.5483 10.5929C29.44 7.94455 31.1657 8.48788 31.1657 8.48788C32.2828 11.3058 31.5715 13.4112 31.3686 13.9204C32.6886 15.3462 33.4667 17.1795 33.4667 19.4203C33.4667 27.2974 28.6957 29.0286 24.1271 29.5382C24.8718 30.1832 25.5144 31.4053 25.5144 33.3407C25.5144 36.0907 25.481 38.2978 25.481 38.9765C25.481 39.5198 25.8533 40.1652 26.8683 39.9615C34.9896 37.2448 40.8438 29.572 40.8438 20.507C40.8773 9.16663 31.7071 0 20.4388 0Z" fill="#97989A"/>
</svg>
