<svg width="116" height="33" viewBox="0 0 116 33" fill="none" xmlns="http://www.w3.org/2000/svg">
<path fill-rule="evenodd" clip-rule="evenodd" d="M63.3994 13.2631H53.8798V0.760742H63.3101V3.20763H56.6125V5.74381H62.5064V8.1907H56.6125V10.8162H63.3994V13.2631ZM46.3003 11.5836C46.5265 11.1014 46.6396 10.5507 46.6396 9.93153V9.89581C46.6396 9.34809 46.5533 8.87777 46.3806 8.48484C46.208 8.0919 45.952 7.74958 45.6127 7.45786C45.2733 7.16614 44.8566 6.91609 44.3624 6.70772C43.8683 6.49935 43.3057 6.31181 42.6746 6.14511C42.1388 6.00223 41.6953 5.87721 41.344 5.77004C40.9927 5.66288 40.7159 5.54977 40.5135 5.4307C40.3111 5.31163 40.1712 5.17767 40.0938 5.02884C40.0164 4.88 39.9777 4.70437 39.9777 4.50195V4.46623C39.9777 4.15665 40.1116 3.89767 40.3795 3.6893C40.6474 3.48093 41.0493 3.37674 41.5851 3.37674C42.1209 3.37674 42.6567 3.48688 43.1926 3.70716C43.7284 3.92744 44.2761 4.22809 44.8357 4.60911L46.2646 2.5373C45.6216 2.0253 44.9161 1.63237 44.1481 1.35851C43.3801 1.08465 42.5377 0.947719 41.6208 0.947719C40.9779 0.947719 40.3885 1.03702 39.8526 1.21563C39.3168 1.39423 38.8554 1.65023 38.4685 1.98363C38.0815 2.31702 37.7808 2.71293 37.5665 3.17135C37.3522 3.62977 37.245 4.14474 37.245 4.71628V4.752C37.245 5.37116 37.3433 5.88911 37.5397 6.30586C37.7362 6.7226 38.013 7.07088 38.3702 7.3507C38.7274 7.63051 39.162 7.86567 39.674 8.05618C40.1861 8.2467 40.7576 8.41935 41.3887 8.57414C41.9126 8.70511 42.3382 8.83014 42.6657 8.94921C42.9931 9.06828 43.2491 9.18735 43.4337 9.30642C43.6182 9.42549 43.7433 9.55349 43.8087 9.69042C43.8742 9.82735 43.907 9.98511 43.907 10.1637V10.1994C43.907 10.5686 43.7492 10.8573 43.4337 11.0657C43.1181 11.274 42.6746 11.3782 42.1031 11.3782C41.3886 11.3782 40.7308 11.2413 40.1295 10.9674C39.5282 10.6936 38.9418 10.3245 38.3702 9.86009L36.7449 11.8069C37.4951 12.4856 38.3286 12.9886 39.2454 13.3161C40.1622 13.6435 41.0969 13.8073 42.0495 13.8073C42.7282 13.8073 43.3473 13.7209 43.907 13.5483C44.4666 13.3756 44.9488 13.1256 45.3537 12.7981C45.7585 12.4707 46.074 12.0659 46.3003 11.5836ZM28.035 13.6286H30.9105L25.5524 1.03702H23.0162L17.658 13.6286H20.4621L21.6052 10.8246H26.8919L28.035 13.6286ZM11.3682 11.6997C11.5885 11.2711 11.6986 10.771 11.6986 10.1994V10.1637C11.6986 9.33023 11.4902 8.67833 11.0735 8.208C10.6567 7.73767 10.0852 7.36558 9.35888 7.09172C9.58512 6.97265 9.79646 6.82977 9.99293 6.66307C10.1894 6.49637 10.362 6.30288 10.5109 6.0826C10.6597 5.86232 10.7788 5.61526 10.8681 5.34139C10.9574 5.06753 11.002 4.752 11.002 4.39479V4.35907C11.002 3.37078 10.6359 2.58493 9.90363 2.00149C9.17134 1.41804 8.16224 1.12632 6.87628 1.12632H1.07163V13.6286H7.01916C7.72168 13.6286 8.36167 13.5572 8.93916 13.4143C9.51665 13.2714 10.0108 13.0571 10.4216 12.7713C10.8324 12.4856 11.1479 12.1284 11.3682 11.6997ZM8.26939 4.82344V4.85916C8.26939 5.32353 8.09079 5.6599 7.73358 5.86828C7.37637 6.07665 6.89414 6.18084 6.28688 6.18084H3.7507V3.53749H6.46549C7.04893 3.53749 7.49544 3.64762 7.80502 3.8679C8.11461 4.08819 8.26939 4.40669 8.26939 4.82344ZM8.96595 9.86009V9.82437C8.96595 9.40762 8.80521 9.07721 8.48372 8.83311C8.16223 8.58902 7.64428 8.46697 6.92986 8.46697H3.7507V11.2175H7.01916C7.62642 11.2175 8.1027 11.1073 8.448 10.8871C8.7933 10.6668 8.96595 10.3245 8.96595 9.86009ZM25.9096 8.39553L24.2486 4.34121L22.5875 8.39553H25.9096ZM13.2525 32.2631H10.3769L9.23386 29.459H3.94716L2.80409 32.2631H0L5.35814 19.6714H7.89433L13.2525 32.2631ZM8.25153 27.03L6.59051 22.9756L4.92949 27.03H8.25153ZM29.446 26.0298C29.7079 25.482 29.8389 24.845 29.8389 24.1187V24.083C29.8389 23.44 29.7287 22.8536 29.5085 22.3237C29.2882 21.7939 28.9727 21.3384 28.5619 20.9574C28.1511 20.5764 27.651 20.2817 27.0616 20.0733C26.4722 19.8649 25.8024 19.7607 25.0523 19.7607H19.9442V32.2631H22.6947V28.5124H24.7844C25.4869 28.5124 26.1447 28.4201 26.758 28.2355C27.3712 28.051 27.907 27.7741 28.3654 27.405C28.8238 27.0359 29.184 26.5775 29.446 26.0298ZM27.0527 24.1723V24.1366C27.0527 23.5174 26.8532 23.0471 26.4543 22.7256C26.0554 22.4041 25.5107 22.2433 24.8201 22.2433H22.6947V26.0655H24.8737C25.5643 26.0655 26.1001 25.8839 26.4811 25.5207C26.8621 25.1576 27.0527 24.7081 27.0527 24.1723ZM46.1395 26.0298C46.4015 25.482 46.5325 24.845 46.5325 24.1187V24.083C46.5325 23.44 46.4223 22.8536 46.202 22.3237C45.9818 21.7939 45.6662 21.3384 45.2554 20.9574C44.8447 20.5764 44.3446 20.2817 43.7552 20.0733C43.1658 19.8649 42.496 19.7607 41.7459 19.7607H36.6378V32.2631H39.3883V28.5124H41.478C42.1805 28.5124 42.8383 28.4201 43.4515 28.2355C44.0647 28.051 44.6006 27.7741 45.059 27.405C45.5174 27.0359 45.8776 26.5775 46.1395 26.0298ZM43.7462 24.1723V24.1366C43.7462 23.5174 43.5468 23.0471 43.1479 22.7256C42.749 22.4041 42.2043 22.2433 41.5137 22.2433H39.3883V26.0655H41.5673C42.2579 26.0655 42.7937 25.8839 43.1747 25.5207C43.5557 25.1576 43.7462 24.7081 43.7462 24.1723ZM62.6367 32.2631H65.5122L60.154 19.6714H57.6179L52.2597 32.2631H55.0638L56.2069 29.459H61.4936L62.6367 32.2631ZM60.5113 27.03L58.8502 22.9756L57.1892 27.03H60.5113ZM79.7946 32.2631H83.0095L79.9553 27.798C80.7531 27.5003 81.3991 27.0329 81.8932 26.3959C82.3873 25.7589 82.6344 24.9343 82.6344 23.9222V23.8865C82.6344 22.5886 82.2206 21.5766 81.3931 20.8502C80.5656 20.1239 79.4076 19.7607 77.9193 19.7607H72.2039V32.2631H74.9544V28.2623H77.1155L79.7946 32.2631ZM79.8482 24.0651V24.0294C79.8482 23.434 79.6577 22.9875 79.2767 22.6899C78.8956 22.3922 78.3658 22.2433 77.6871 22.2433H74.9544V25.8333H77.7407C78.4194 25.8333 78.9403 25.6726 79.3034 25.3511C79.6666 25.0296 79.8482 24.6009 79.8482 24.0651ZM89.8798 32.2631H99.3994V29.8162H92.6125V27.1907H98.5064V24.7438H92.6125V22.2076H99.3101V19.7607H89.8798V32.2631ZM115.593 32.2631H106.609V19.7607H109.36V29.7626H115.593V32.2631Z" fill="#423A3A"/>
</svg>
