<svg width="40" height="40" viewBox="0 0 40 40" fill="none" xmlns="http://www.w3.org/2000/svg">
<mask id="mask0_2_21" style="mask-type:luminance" maskUnits="userSpaceOnUse" x="0" y="0" width="40" height="40">
<path d="M40 0H0V40H40V0Z" fill="white"/>
</mask>
<g mask="url(#mask0_2_21)">
<path fill-rule="evenodd" clip-rule="evenodd" d="M20 40C31.0452 40 40 31.0452 40 20C40 8.95417 31.0452 0 20 0C8.95417 0 0 8.95348 0 20C0 31.0452 8.95348 40 20 40ZM17 20H22.6662C23.0602 20 23.4502 19.9225 23.8142 19.7717C24.1782 19.621 24.5088 19.4 24.7875 19.1213C25.066 18.8428 25.287 18.5122 25.4378 18.1482C25.5885 17.7842 25.6662 17.394 25.6662 17C25.6662 16.6061 25.5885 16.216 25.4378 15.852C25.287 15.488 25.066 15.1573 24.7875 14.8788C24.5088 14.6002 24.1782 14.3792 23.8142 14.2284C23.4502 14.0777 23.0602 14.0001 22.6662 14.0001H17V20ZM12.9999 10.0001H22.6662C26.532 10.0001 29.6662 13.1341 29.6662 17C29.6662 20.866 26.532 24 22.6662 24H17V30H12.9999V10.0001Z" fill="#97989A"/>
</g>
</svg>
