<svg width="50" height="40" viewBox="0 0 50 40" fill="none" xmlns="http://www.w3.org/2000/svg">
<path d="M49.2207 4.73544C47.4098 5.53938 45.4635 6.0808 43.4208 6.32486C45.5066 5.07588 47.1083 3.0968 47.8609 0.73831C45.9106 1.895 43.749 2.73585 41.4479 3.18909C39.6083 1.22642 36.9811 0 34.0771 0C27.5574 0 22.7666 6.08285 24.2391 12.3975C15.8491 11.977 8.40853 7.95734 3.42699 1.84783C0.781378 6.38638 2.05496 12.3236 6.55045 15.3302C4.89746 15.2769 3.3388 14.8236 1.97908 14.0669C1.86833 18.7449 5.22149 23.1214 10.0779 24.0956C8.65668 24.4811 7.10008 24.5714 5.51682 24.2678C6.80066 28.2793 10.5291 31.1977 14.9508 31.2797C10.7055 34.6083 5.35685 36.0952 0 35.4635C4.46883 38.3285 9.77851 40 15.4799 40C34.2289 40 44.8216 24.1653 44.1817 9.96308C46.1546 8.53773 47.8671 6.75964 49.2207 4.73544Z" fill="#97989A"/>
</svg>
